<?xml version="1.0" encoding="UTF-8"?>
<svg version="1.1" xmlns="http://www.w3.org/2000/svg" width="117" height="115">
<path d="M0 0 C0.825 0.103125 1.65 0.20625 2.5 0.3125 C6.13801033 5.7695155 5.19251462 13.41553139 4.0703125 19.73046875 C0.67883681 30.21892133 -9.74366801 37.93238495 -18.8984375 43.234375 C-26.06948784 46.20616163 -33.25586416 46.62993206 -40.9375 46.5625 C-42.25331055 46.57410156 -42.25331055 46.57410156 -43.59570312 46.5859375 C-52.12260032 46.56080295 -60.09994502 45.43431335 -67.8125 41.625 C-68.77800781 41.16738281 -69.74351563 40.70976563 -70.73828125 40.23828125 C-77.37835003 35.6080777 -79.57377856 29.22943865 -81.5 21.625 C-81.74105469 20.78388672 -81.98210937 19.94277344 -82.23046875 19.07617188 C-83.83558622 12.94267754 -83.83558622 12.94267754 -82.125 9.73046875 C-80.5 8.3125 -80.5 8.3125 -77.6875 8.375 C-74.5 9.3125 -74.5 9.3125 -72.875 12.0625 C-71.98942997 14.53385822 -71.30350888 17.02952022 -70.609375 19.5625 C-70.28453125 20.7175 -69.9596875 21.8725 -69.625 23.0625 C-69.33882812 24.17109375 -69.05265625 25.2796875 -68.7578125 26.421875 C-67.2402329 29.9094803 -65.86456813 30.68532977 -62.5 32.3125 C-61.778125 32.84875 -61.05625 33.385 -60.3125 33.9375 C-50.68266407 38.64541979 -34.41811672 37.26376369 -24.30078125 34.41015625 C-21.79279751 33.24081375 -19.71423284 31.9690742 -17.5 30.3125 C-16.68015625 29.70921875 -15.8603125 29.1059375 -15.015625 28.484375 C-9.97608342 24.40780315 -6.65803327 20.77542854 -5.5 14.3125 C-5.17799769 11.15608231 -4.94101604 8.02167197 -4.80859375 4.8515625 C-4.38323896 1.35180789 -3.50361498 0.43795187 0 0 Z " fill="#EF3F46" transform="translate(101.5,53.6875)"/>
<path d="M0 0 C1.2684375 0.12375 1.2684375 0.12375 2.5625 0.25 C4.99100258 3.89275387 4.8686465 6.62682159 4.86328125 10.83984375 C4.86756638 11.58077774 4.8718515 12.32171173 4.87626648 13.08509827 C4.88200518 14.65104145 4.88251341 16.2170113 4.87817383 17.78295898 C4.87501593 20.17543159 4.89846959 22.56666483 4.92382812 24.95898438 C4.92610143 26.48176928 4.92680447 28.0045575 4.92578125 29.52734375 C4.934991 30.24099594 4.94420074 30.95464813 4.95368958 31.68992615 C4.91525345 35.8287537 4.48988268 38.24327659 1.5625 41.25 C-3.3125 40.375 -3.3125 40.375 -4.4375 39.25 C-4.66577772 37.5554553 -4.83258694 35.85254227 -4.97265625 34.1484375 C-5.10317383 32.57642578 -5.10317383 32.57642578 -5.23632812 30.97265625 C-5.32333984 29.86792969 -5.41035156 28.76320313 -5.5 27.625 C-5.63631836 26.00271484 -5.63631836 26.00271484 -5.77539062 24.34765625 C-7.06221278 8.49942555 -7.06221278 8.49942555 -3.4375 1.25 C-2.4375 0.25 -2.4375 0.25 0 0 Z " fill="#303030" transform="translate(45.4375,20.75)"/>
<path d="M0 0 C0.804375 0.144375 1.60875 0.28875 2.4375 0.4375 C4.49471592 3.52332388 4.71096154 4.37758583 4.8515625 7.90234375 C4.89055664 8.77963135 4.92955078 9.65691895 4.96972656 10.56079102 C5.0003418 11.48947998 5.03095703 12.41816895 5.0625 13.375 C5.09827148 14.31980225 5.13404297 15.26460449 5.17089844 16.23803711 C5.23853353 18.11652136 5.30114514 19.99519411 5.35839844 21.87402344 C5.42503976 24.03369603 5.51107367 26.19275761 5.6015625 28.3515625 C5.62992188 29.39054687 5.65828125 30.42953125 5.6875 31.5 C5.72617188 32.81677734 5.72617188 32.81677734 5.765625 34.16015625 C5.3621414 36.96052455 4.28143952 38.33637945 2.4375 40.4375 C0.0625 40.125 0.0625 40.125 -2.5625 39.4375 C-6.99390812 32.79038782 -5.77019274 22.8364582 -5.8125 15.0625 C-5.833125 14.09183594 -5.85375 13.12117188 -5.875 12.12109375 C-5.88015625 11.18652344 -5.8853125 10.25195312 -5.890625 9.2890625 C-5.8999707 8.45197754 -5.90931641 7.61489258 -5.91894531 6.75244141 C-5.32715618 2.90905472 -3.89136498 0.66437939 0 0 Z " fill="#343434" transform="translate(73.5625,19.5625)"/>
</svg>
