<?xml version="1.0" encoding="UTF-8"?>
<svg version="1.1" xmlns="http://www.w3.org/2000/svg" width="80" height="80">
<path d="M0 0 C0.78761719 0.44730469 1.57523438 0.89460937 2.38671875 1.35546875 C11.30433941 6.85343984 17.61159767 14.70675848 20.54638672 24.8972168 C22.65910063 34.69097619 22.06290176 46.30058676 17 55 C16.55269531 55.78761719 16.10539062 56.57523438 15.64453125 57.38671875 C10.14656016 66.30433941 2.29324152 72.61159767 -7.8972168 75.54638672 C-17.69097619 77.65910063 -29.30058676 77.06290176 -38 72 C-38.78761719 71.55269531 -39.57523438 71.10539062 -40.38671875 70.64453125 C-49.30433941 65.14656016 -55.61159767 57.29324152 -58.54638672 47.1027832 C-60.65910063 37.30902381 -60.06290176 25.69941324 -55 17 C-54.55269531 16.21238281 -54.10539062 15.42476562 -53.64453125 14.61328125 C-48.14656016 5.69566059 -40.29324152 -0.61159767 -30.1027832 -3.54638672 C-20.30902381 -5.65910063 -8.69941324 -5.06290176 0 0 Z " fill="#1A1A24" transform="translate(59,4)"/>
<path d="M0 0 C0.94101562 0.00128906 1.88203125 0.00257812 2.8515625 0.00390625 C5.70828116 0.49476658 6.60677092 1.20051221 8.375 3.4375 C7.5 8.3125 7.5 8.3125 6.375 9.4375 C4.68891034 9.50955511 2.99999341 9.52136068 1.3125 9.5 C0.39339844 9.49097656 -0.52570312 9.48195313 -1.47265625 9.47265625 C-2.18292969 9.46105469 -2.89320312 9.44945312 -3.625 9.4375 C-3.851875 10.241875 -4.07875 11.04625 -4.3125 11.875 C-5.44274144 14.94279819 -6.66957794 17.19116638 -8.375 19.9375 C-10.39626099 23.4650978 -10.39626099 23.4650978 -10.25 27.5 C-8.50412136 30.65601139 -6.65709985 33.70754762 -4.6484375 36.703125 C-3.625 38.4375 -3.625 38.4375 -3.625 40.4375 C2.645 40.4375 8.915 40.4375 15.375 40.4375 C16.035 38.7875 16.695 37.1375 17.375 35.4375 C17.705 35.1075 18.035 34.7775 18.375 34.4375 C20.685 34.7675 22.995 35.0975 25.375 35.4375 C25.83296457 38.56692457 25.88059016 40.66975198 24.109375 43.359375 C19.07460465 49.27400813 19.07460465 49.27400813 15.04003906 49.66210938 C11.9017523 49.79106558 8.76523222 49.87131244 5.625 49.9375 C4.53960937 49.99164063 3.45421875 50.04578125 2.3359375 50.1015625 C-5.47096941 50.23517704 -5.47096941 50.23517704 -8.57470703 48.08984375 C-10.16256938 46.29237754 -11.39613065 44.49509447 -12.625 42.4375 C-13.02009766 41.85162109 -13.41519531 41.26574219 -13.82226562 40.66210938 C-14.95048975 38.95332395 -15.98126847 37.2133433 -17 35.4375 C-17.35449219 34.86 -17.70898438 34.2825 -18.07421875 33.6875 C-20.5492013 29.40644911 -21.32987251 26.32920925 -20.625 21.4375 C-19.33623721 18.36079556 -17.69073167 15.58252605 -15.9375 12.75 C-15.50244141 12.00427734 -15.06738281 11.25855469 -14.61914062 10.49023438 C-10.92611895 4.35708281 -7.71303812 -0.15936029 0 0 Z " fill="#21B8D3" transform="translate(34.625,15.5625)"/>
<path d="M0 0 C1.02453911 2.04907821 2.02351753 4.05879383 2.875 6.1875 C3.24625 6.785625 3.6175 7.38375 4 8 C4.61875 8.103125 5.2375 8.20625 5.875 8.3125 C8.9111281 9.29477674 9.81006396 11.35574592 11.25 14.078125 C12.30285915 16.77607657 12.27850307 19.14534357 12 22 C12.66 22 13.32 22 14 22 C14 22.99 14 23.98 14 25 C9.545 26.485 9.545 26.485 5 28 C4.67 28.99 4.34 29.98 4 31 C-1.28 31 -6.56 31 -12 31 C-17 25 -17 25 -17 22 C-17.66 22 -18.32 22 -19 22 C-18.67 18.7 -18.34 15.4 -18 12 C-17.01 11.67 -16.02 11.34 -15 11 C-14.67 9.35 -14.34 7.7 -14 6 C-13.32453125 5.90203125 -12.6490625 5.8040625 -11.953125 5.703125 C-5.04032595 4.62920914 -5.04032595 4.62920914 0 0 Z " fill="#15161F" transform="translate(45,22)"/>
<path d="M0 0 C1.33240997 0.6685102 2.66547193 1.33572818 4 2 C4 2.66 4 3.32 4 4 C-11.51 4 -27.02 4 -43 4 C-32.19295359 -6.80704641 -13.07475093 -7.19373846 0 0 Z " fill="#1F1F29" transform="translate(59,4)"/>
<path d="M0 0 C0.97582031 0.03609375 1.95164062 0.0721875 2.95703125 0.109375 C4.06111328 0.17898438 4.06111328 0.17898438 5.1875 0.25 C5.98703138 3.53696233 6.28408936 4.96023192 5.1875 8.25 C-0.7525 8.745 -0.7525 8.745 -6.8125 9.25 C-6.8125 10.9 -6.8125 12.55 -6.8125 14.25 C-8.125 16.92578125 -8.125 16.92578125 -9.8125 19.5625 C-10.369375 20.44550781 -10.92625 21.32851563 -11.5 22.23828125 C-11.933125 22.90214844 -12.36625 23.56601562 -12.8125 24.25 C-13.1425 24.25 -13.4725 24.25 -13.8125 24.25 C-13.8125 27.88 -13.8125 31.51 -13.8125 35.25 C-17.64809614 31.41440386 -19.12811126 28.72680301 -19.4375 23.3125 C-19.31376495 14.94351137 -14.23580667 7.6121762 -8.40625 1.88671875 C-5.32082172 -0.06026085 -3.60937524 -0.17394579 0 0 Z " fill="#19C3DF" transform="translate(34.8125,15.75)"/>
<path d="M0 0 C3.78338695 0.51126851 5.49592922 1.14324319 8 4 C9.71258616 6.51602165 11.18388798 9.16738985 12.6875 11.8125 C13.10322266 12.51181641 13.51894531 13.21113281 13.94726562 13.93164062 C16.31793556 18.09296437 17.64169326 21.07028588 17 26 C16 27 16 27 12.9375 27.0625 C11.968125 27.041875 10.99875 27.02125 10 27 C8.00790476 23.78460356 6.02082013 20.56641716 4.046875 17.33984375 C2.90158746 15.47110168 1.75045598 13.60580272 0.578125 11.75390625 C-1.47904647 8.40727585 -2.67822529 5.95631422 -2 2 C-1.34 1.34 -0.68 0.68 0 0 Z " fill="#15BC2F" transform="translate(50,17)"/>
<path d="M0 0 C2.41734542 -0.08117951 4.83194949 -0.14056926 7.25 -0.1875 C7.93191406 -0.21263672 8.61382812 -0.23777344 9.31640625 -0.26367188 C12.59199289 -0.31137459 14.65348556 -0.21085076 17.484375 1.51171875 C17.98453125 2.00285156 18.4846875 2.49398438 19 3 C19.33 2.67 19.66 2.34 20 2 C22.67058851 1.85884839 25.32432238 1.95752893 28 2 C31.59509762 6.00596591 34.2762831 10.01159725 36.796875 14.765625 C37.89261971 16.80057947 39.08364972 18.73172421 40.3125 20.6875 C42.09868366 24.19371237 42.54005632 26.12959635 42 30 C40 32 40 32 36.875 32.125 C35.92625 32.08375 34.9775 32.0425 34 32 C34 31.67 34 31.34 34 31 C35.65 30.67 37.3 30.34 39 30 C39.67044796 24.07770965 37.47043676 20.62044586 34.5 15.75 C33.65271654 14.33022772 32.80879096 12.90844444 31.96875 11.484375 C31.40317383 10.55189941 31.40317383 10.55189941 30.82617188 9.60058594 C30 8 30 8 30 6 C27.69 5.67 25.38 5.34 23 5 C21.75923212 6.0325362 21.75923212 6.0325362 21.75 8.25 C22.04790338 11.52693713 23.22914057 13.26992504 25 16 C25 16.66 25 17.32 25 18 C23.68 17.67 22.36 17.34 21 17 C20.01 14.69 19.02 12.38 18 10 C17.319375 10.9590625 17.319375 10.9590625 16.625 11.9375 C12.74986164 14.98225157 8.8077353 14.81649865 4 15 C3.67 16.65 3.34 18.3 3 20 C2.01 20.33 1.02 20.66 0 21 C1.20689255 17.89656201 2.50596946 14.98806107 4 12 C7.3 11.67 10.6 11.34 14 11 C14.33 9.35 14.66 7.7 15 6 C13.17697348 3.75887912 13.17697348 3.75887912 10.5390625 3.734375 C9.57742187 3.73953125 8.61578125 3.7446875 7.625 3.75 C6.66851562 3.74484375 5.71203125 3.7396875 4.7265625 3.734375 C1.98941342 4.00103136 0.34012543 4.60257913 -2 6 C-1.49396008 3.83125748 -1.00016187 2.00032373 0 0 Z " fill="#132D37" transform="translate(27,13)"/>
<path d="M0 0 C0.66 0.33 1.32 0.66 2 1 C1.125 5.875 1.125 5.875 0 7 C-1.68608966 7.07205511 -3.37500659 7.08386068 -5.0625 7.0625 C-5.98160156 7.05347656 -6.90070312 7.04445313 -7.84765625 7.03515625 C-8.55792969 7.02355469 -9.26820312 7.01195312 -10 7 C-10.226875 7.804375 -10.45375 8.60875 -10.6875 9.4375 C-11.81774144 12.50529819 -13.04457794 14.75366638 -14.75 17.5 C-16.77126099 21.0275978 -16.77126099 21.0275978 -16.625 25.0625 C-14.87912136 28.21851139 -13.03209985 31.27004762 -11.0234375 34.265625 C-10 36 -10 36 -10 38 C-3.73 38 2.54 38 9 38 C9.66 36.35 10.32 34.7 11 33 C11.33 32.67 11.66 32.34 12 32 C14.31 32.33 16.62 32.66 19 33 C19 34.98 19 36.96 19 39 C18.01 39.495 18.01 39.495 17 40 C16.505 37.03 16.505 37.03 16 34 C15.01 34 14.02 34 13 34 C12.34 35.98 11.68 37.96 11 40 C10.34926514 40.02505615 9.69853027 40.0501123 9.02807617 40.07592773 C6.08101954 40.19193702 3.1342787 40.31464115 0.1875 40.4375 C-0.83666016 40.47681641 -1.86082031 40.51613281 -2.91601562 40.55664062 C-3.89892578 40.59853516 -4.88183594 40.64042969 -5.89453125 40.68359375 C-7.25348511 40.73858032 -7.25348511 40.73858032 -8.63989258 40.79467773 C-11.15048782 40.9208205 -11.15048782 40.9208205 -14 42 C-19.5976061 34.61744298 -22.13636641 29.32541956 -21 20 C-20.34 20.33 -19.68 20.66 -19 21 C-18.17886823 19.60922699 -17.36847505 18.21211107 -16.5625 16.8125 C-16.11003906 16.03519531 -15.65757813 15.25789063 -15.19140625 14.45703125 C-13.97608501 11.95068023 -13.42373425 9.74209635 -13 7 C-10.47524538 5.73762269 -8.68799534 5.90143596 -5.875 5.9375 C-4.96492188 5.94652344 -4.05484375 5.95554687 -3.1171875 5.96484375 C-2.06917969 5.98224609 -2.06917969 5.98224609 -1 6 C-0.67 4.02 -0.34 2.04 0 0 Z " fill="#13D0EE" transform="translate(41,18)"/>
<path d="M0 0 C1.2380014 3.57644848 0.74926071 6.33694766 0 10 C0.66 10 1.32 10 2 10 C3.51367188 12.68554688 3.51367188 12.68554688 5.02734375 15.37109375 C5.8972513 16.97878146 5.8972513 16.97878146 7 18 C9.69235776 18.23678716 12.36498156 18.42198025 15.0625 18.5625 C15.82111328 18.60568359 16.57972656 18.64886719 17.36132812 18.69335938 C19.24065438 18.79973633 21.12030244 18.90039934 23 19 C23.12375 18.360625 23.2475 17.72125 23.375 17.0625 C23.58125 16.381875 23.7875 15.70125 24 15 C27.25303044 13.37348478 30.39225602 13.88546844 34 14 C35 15 35 15 35.1328125 16.99609375 C35.13023438 17.80175781 35.12765625 18.60742188 35.125 19.4375 C35.12886719 20.64212891 35.12886719 20.64212891 35.1328125 21.87109375 C35 24 35 24 34 26 C33.34 26 32.68 26 32 26 C32.66 23.03 33.32 20.06 34 17 C31.69 17 29.38 17 27 17 C26.01 18.65 25.02 20.3 24 22 C17.73 22 11.46 22 5 22 C2.958125 18.720625 2.958125 18.720625 0.875 15.375 C0.43913574 14.69872559 0.00327148 14.02245117 -0.44580078 13.32568359 C-2.41218894 10.02595554 -3.09795151 8.46994714 -2.3046875 4.6640625 C-1.54197249 3.10666239 -0.7755294 1.55105881 0 0 Z " fill="#122A35" transform="translate(26,34)"/>
<path d="M0 0 C0.99 0 1.98 0 3 0 C3.33 1.98 3.66 3.96 4 6 C3.34 6 2.68 6 2 6 C1.34 7.32 0.68 8.64 0 10 C-3.95827235 10.05785647 -7.9164367 10.09354717 -11.875 10.125 C-13.00292969 10.14175781 -14.13085938 10.15851562 -15.29296875 10.17578125 C-16.90751953 10.18544922 -16.90751953 10.18544922 -18.5546875 10.1953125 C-20.04718018 10.21102295 -20.04718018 10.21102295 -21.56982422 10.22705078 C-24 10 -24 10 -26 8 C-25.67 7.34 -25.34 6.68 -25 6 C-17.41 6 -9.82 6 -2 6 C-1.67 4.68 -1.34 3.36 -1 2 C-0.67 1.34 -0.34 0.68 0 0 Z " fill="#1DDCF9" transform="translate(54,52)"/>
<path d="M0 0 C2.475 0.495 2.475 0.495 5 1 C5.350625 2.0725 5.70125 3.145 6.0625 4.25 C7.92187068 9.3045999 10.72664268 13.71421977 13.57421875 18.265625 C15 21 15 21 15 25 C14.01 25 13.02 25 12 25 C10.16746657 22.15824525 8.36283462 19.29974203 6.5625 16.4375 C6.04623047 15.63763672 5.52996094 14.83777344 4.99804688 14.01367188 C2.02042009 9.2455767 0.29531909 5.64135187 0 0 Z " fill="#0CDD2F" transform="translate(50,17)"/>
<path d="M0 0 C1.32 0 2.64 0 4 0 C3.01950158 3.43174448 2.17394544 5.79024226 -0.125 8.5625 C-3.00519788 13.84286279 -2.31472313 19.10768354 -2 25 C-5.03920212 22.23708898 -6.85001305 19.81184232 -7.1953125 15.640625 C-7.17210937 14.85171875 -7.14890625 14.0628125 -7.125 13.25 C-7.10695313 12.45078125 -7.08890625 11.6515625 -7.0703125 10.828125 C-7.04710937 10.22484375 -7.02390625 9.6215625 -7 9 C-6.01 8.67 -5.02 8.34 -4 8 C-2.89363605 5.60931266 -2.89363605 5.60931266 -2 3 C-1.34 2.01 -0.68 1.02 0 0 Z " fill="#0ED2F1" transform="translate(23,26)"/>
<path d="M0 0 C0.66 0.33 1.32 0.66 2 1 C1.125 5.875 1.125 5.875 0 7 C-1.68608966 7.07205511 -3.37500659 7.08386068 -5.0625 7.0625 C-5.98160156 7.05347656 -6.90070312 7.04445313 -7.84765625 7.03515625 C-8.55792969 7.02355469 -9.26820312 7.01195312 -10 7 C-10.226875 7.804375 -10.45375 8.60875 -10.6875 9.4375 C-11.81774144 12.50529819 -13.04457794 14.75366638 -14.75 17.5 C-16.77126099 21.0275978 -16.77126099 21.0275978 -16.625 25.0625 C-14.55477287 28.80483367 -12.36814745 32.4387401 -10 36 C-10.33 36.66 -10.66 37.32 -11 38 C-13.59228021 35.61853776 -15.39878018 33.05051257 -17.25 30.0625 C-17.79140625 29.20785156 -18.3328125 28.35320313 -18.890625 27.47265625 C-20 25 -20 25 -19.828125 22.9609375 C-18.5401364 19.9110777 -16.85310463 17.15271849 -15.15625 14.31640625 C-13.93439231 11.86856298 -13.4179515 9.69293753 -13 7 C-10.47524538 5.73762269 -8.68799534 5.90143596 -5.875 5.9375 C-4.96492188 5.94652344 -4.05484375 5.95554687 -3.1171875 5.96484375 C-2.06917969 5.98224609 -2.06917969 5.98224609 -1 6 C-0.67 4.02 -0.34 2.04 0 0 Z " fill="#0D96AC" transform="translate(41,18)"/>
<path d="M0 0 C1.4540625 0.0309375 1.4540625 0.0309375 2.9375 0.0625 C6.53259762 4.06846591 9.2137831 8.07409725 11.734375 12.828125 C12.83011971 14.86307947 14.02114972 16.79422421 15.25 18.75 C17.03618366 22.25621237 17.47755632 24.19209635 16.9375 28.0625 C14.9375 30.0625 14.9375 30.0625 11.8125 30.1875 C10.389375 30.125625 10.389375 30.125625 8.9375 30.0625 C8.9375 29.7325 8.9375 29.4025 8.9375 29.0625 C10.5875 28.7325 12.2375 28.4025 13.9375 28.0625 C14.60794796 22.14020965 12.40793676 18.68294586 9.4375 13.8125 C8.59021654 12.39272772 7.74629096 10.97094444 6.90625 9.546875 C6.52919922 8.92522461 6.15214844 8.30357422 5.76367188 7.66308594 C4.9375 6.0625 4.9375 6.0625 4.9375 4.0625 C-0.34449593 2.86261955 -0.34449593 2.86261955 -5.0625 5.0625 C-3.9375 0.08035714 -3.9375 0.08035714 0 0 Z " fill="#174525" transform="translate(52.0625,14.9375)"/>
<path d="M0 0 C0 3 0 3 -1.62011719 5.16308594 C-4.65280992 7.50387175 -6.28061083 7.46508606 -10.078125 7.390625 C-11.23828125 7.37773438 -12.3984375 7.36484375 -13.59375 7.3515625 C-14.8003125 7.31804687 -16.006875 7.28453125 -17.25 7.25 C-19.08304688 7.22292969 -19.08304688 7.22292969 -20.953125 7.1953125 C-23.96954078 7.148181 -26.98437491 7.08239413 -30 7 C-30.66 5.35 -31.32 3.7 -32 2 C-30.515 2.99 -30.515 2.99 -29 4 C-25.05702323 4.4648447 -21.09243699 4.37033791 -17.125 4.375 C-16.03574219 4.39949219 -14.94648437 4.42398438 -13.82421875 4.44921875 C-7.45176816 4.52486272 -7.45176816 4.52486272 -1.7421875 1.9765625 C-1.16726562 1.32429688 -0.59234375 0.67203125 0 0 Z " fill="#15303C" transform="translate(57,60)"/>
<path d="M0 0 C4.95 0 9.9 0 15 0 C16.88343932 3.76687864 17.22057835 5.02958963 17 9 C15.68 7.35 14.36 5.7 13 4 C11.25034642 3.94570041 9.50020213 3.90707177 7.75 3.875 C6.77546875 3.85179687 5.8009375 3.82859375 4.796875 3.8046875 C1.9803502 4.00137219 0.39050964 4.55431084 -2 6 C-1.49396008 3.83125748 -1.00016187 2.00032373 0 0 Z " fill="#1D2B38" transform="translate(27,13)"/>
<path d="M0 0 C2.31 0.33 4.62 0.66 7 1 C7 2.98 7 4.96 7 7 C6.01 7.495 6.01 7.495 5 8 C4.67 6.02 4.34 4.04 4 2 C3.01 2 2.02 2 1 2 C0.34 3.65 -0.32 5.3 -1 7 C-7.93 7 -14.86 7 -22 7 C-22 6.67 -22 6.34 -22 6 C-15.73 6 -9.46 6 -3 6 C-2.34 4.35 -1.68 2.7 -1 1 C-0.67 0.67 -0.34 0.34 0 0 Z " fill="#08AAC3" transform="translate(53,50)"/>
<path d="M0 0 C2.475 0.495 2.475 0.495 5 1 C5.61875 2.7634375 5.61875 2.7634375 6.25 4.5625 C7.77813175 8.66432733 9.73887533 12.25744882 12 16 C11.67 16.66 11.34 17.32 11 18 C10.45730469 17.15695313 9.91460937 16.31390625 9.35546875 15.4453125 C8.64003906 14.34960938 7.92460938 13.25390625 7.1875 12.125 C6.47980469 11.03445312 5.77210937 9.94390625 5.04296875 8.8203125 C3.13041264 5.83529884 3.13041264 5.83529884 0 4 C0 2.68 0 1.36 0 0 Z " fill="#24E042" transform="translate(50,17)"/>
<path d="M0 0 C0.66 0.33 1.32 0.66 2 1 C1.67 1.66 1.34 2.32 1 3 C0.34 3 -0.32 3 -1 3 C-1 4.65 -1 6.3 -1 8 C-1.99 8.33 -2.98 8.66 -4 9 C-5.12516085 10.83284443 -5.12516085 10.83284443 -6 13 C-6.9375 15.1875 -6.9375 15.1875 -8 17 C-8.99 17.33 -9.98 17.66 -11 18 C-9.650967 14.39827553 -8.04283018 11.1705113 -6.0625 7.875 C-5.55847656 7.02679687 -5.05445313 6.17859375 -4.53515625 5.3046875 C-3.16808288 3.25233816 -1.81325308 1.6562849 0 0 Z " fill="#1EBEDA" transform="translate(27,17)"/>
<path d="M0 0 C0.66 0 1.32 0 2 0 C2.33 1.98 2.66 3.96 3 6 C-0.0684847 8.97550031 -1.46236331 9.96474513 -5.8125 10.25 C-6.864375 10.1675 -7.91625 10.085 -9 10 C-9.33 9.01 -9.66 8.02 -10 7 C-10.66 7 -11.32 7 -12 7 C-11.67 5.68 -11.34 4.36 -11 3 C-10.01 4.32 -9.02 5.64 -8 7 C-6.02 7 -4.04 7 -2 7 C-1.34 4.69 -0.68 2.38 0 0 Z " fill="#181F21" transform="translate(69,37)"/>
<path d="M0 0 C0.33 0.66 0.66 1.32 1 2 C0.67 2.66 0.34 3.32 0 4 C0.99 4 1.98 4 3 4 C3.33 8.29 3.66 12.58 4 17 C0.91148229 13.91148229 -0.79856107 12.03146036 -1.23046875 7.67578125 C-1.21628906 6.89589844 -1.20210937 6.11601563 -1.1875 5.3125 C-1.18105469 4.52488281 -1.17460937 3.73726562 -1.16796875 2.92578125 C-1 1 -1 1 0 0 Z " fill="#09CAE8" transform="translate(17,34)"/>
<path d="M0 0 C0.66 0 1.32 0 2 0 C0.125 4.75 0.125 4.75 -1 7 C-1.1421988 10.83936768 -1.17754676 14.32016639 0 18 C-0.99 18 -1.98 18 -3 18 C-3.97551509 15.07345473 -4.16478088 13.05345004 -4.1875 10 C-4.20167969 9.13375 -4.21585938 8.2675 -4.23046875 7.375 C-4 5 -4 5 -2 2 C-1.34 2 -0.68 2 0 2 C0 1.34 0 0.68 0 0 Z " fill="#152D39" transform="translate(16,30)"/>
<path d="M0 0 C2.33717809 3.50576713 3.65107131 6.85352003 4.875 10.875 C6.20593542 14.57204283 7.98002785 17.63337975 10 21 C9.67 21.66 9.34 22.32 9 23 C7.31527988 20.28159655 5.6556021 17.54871807 4 14.8125 C3.52304687 14.04357422 3.04609375 13.27464844 2.5546875 12.48242188 C2.10351562 11.73154297 1.65234375 10.98066406 1.1875 10.20703125 C0.76855469 9.5210083 0.34960938 8.83498535 -0.08203125 8.12817383 C-1.1756429 5.5927981 -1.23691702 3.73470762 -1 1 C-0.67 0.67 -0.34 0.34 0 0 Z " fill="#0CA426" transform="translate(49,18)"/>
<path d="M0 0 C3.3 0 6.6 0 10 0 C10 0.99 10 1.98 10 3 C9.39671875 3.03738281 8.7934375 3.07476563 8.171875 3.11328125 C2.00632228 3.56253341 2.00632228 3.56253341 -3 7 C-3 5.68 -3 4.36 -3 3 C-2.34 3 -1.68 3 -1 3 C-0.67 2.01 -0.34 1.02 0 0 Z " fill="#2CE5FD" transform="translate(29,17)"/>
<path d="M0 0 C0.33 0 0.66 0 1 0 C1.061875 1.299375 1.12375 2.59875 1.1875 3.9375 C1.68201769 8.75334153 3.42998005 12.03295268 6.0390625 16.0546875 C7 18 7 18 6 21 C5.01993141 19.37554381 4.04097364 17.75041739 3.0625 16.125 C2.51722656 15.22007813 1.97195312 14.31515625 1.41015625 13.3828125 C-1.00572348 9.30057806 -1.17117578 6.79292193 -1 2 C-0.67 1.34 -0.34 0.68 0 0 Z " fill="#139FB7" transform="translate(15,35)"/>
<path d="M0 0 C2.00188584 3.00282877 3.81300244 6.06683753 5.625 9.1875 C6.25664062 10.27417969 6.88828125 11.36085938 7.5390625 12.48046875 C8.02117188 13.31191406 8.50328125 14.14335938 9 15 C8.67 15.66 8.34 16.32 8 17 C5.40771979 14.61853776 3.60121982 12.05051257 1.75 9.0625 C1.20859375 8.20785156 0.6671875 7.35320313 0.109375 6.47265625 C-1 4 -1 4 -0.671875 1.68359375 C-0.45015625 1.12800781 -0.2284375 0.57242188 0 0 Z " fill="#05A5BE" transform="translate(22,39)"/>
<path d="M0 0 C6.15234375 -0.09765625 6.15234375 -0.09765625 8 0 C9 1 9 1 9.1328125 2.99609375 C9.13023438 3.80175781 9.12765625 4.60742188 9.125 5.4375 C9.12757812 6.24058594 9.13015625 7.04367188 9.1328125 7.87109375 C9 10 9 10 8 12 C7.34 12 6.68 12 6 12 C6.66 9.03 7.32 6.06 8 3 C5.36 3 2.72 3 0 3 C0 2.01 0 1.02 0 0 Z " fill="#16323F" transform="translate(52,48)"/>
<path d="M0 0 C0.268125 0.556875 0.53625 1.11375 0.8125 1.6875 C2.00699665 4.08933398 2.00699665 4.08933398 3.625 6.625 C5 9 5 9 5 11 C2.42452602 10.65660347 1.31105887 10.39993284 -0.3125 8.3125 C-1.21465796 5.27796869 -0.69345348 3.05119529 0 0 Z " fill="#13311E" transform="translate(47,20)"/>
<path d="M0 0 C0.99 0 1.98 0 3 0 C3.33 1.98 3.66 3.96 4 6 C3.34 6 2.68 6 2 6 C1.34 7.32 0.68 8.64 0 10 C-0.99 9.67 -1.98 9.34 -3 9 C-2.360625 8.38125 -1.72125 7.7625 -1.0625 7.125 C1.03883584 5.17402388 1.03883584 5.17402388 2 3 C0.02 3.99 0.02 3.99 -2 5 C-1.34 3.35 -0.68 1.7 0 0 Z " fill="#1ECEEB" transform="translate(54,52)"/>
<path d="M0 0 C2.31 0.33 4.62 0.66 7 1 C7 2.98 7 4.96 7 7 C6.01 7.495 6.01 7.495 5 8 C4.67 6.02 4.34 4.04 4 2 C3.01 2 2.02 2 1 2 C0.67 2.66 0.34 3.32 0 4 C0 2.68 0 1.36 0 0 Z " fill="#10AFC8" transform="translate(53,50)"/>
<path d="M0 0 C1 1.33333333 2 2.66666667 3 4 C3.8353125 4.9590625 3.8353125 4.9590625 4.6875 5.9375 C6.29422092 8.46234715 6.2448015 10.06238205 6 13 C-0.28378378 5.25 -0.28378378 5.25 0 0 Z " fill="#07D4F3" transform="translate(20,44)"/>
<path d="M0 0 C0.99 0.33 1.98 0.66 3 1 C0.03 5.95 0.03 5.95 -3 11 C-4 7 -4 7 -3.22265625 5.078125 C-1.61132812 2.5390625 -1.61132812 2.5390625 0 0 Z " fill="#17333F" transform="translate(22,19)"/>
<path d="M0 0 C3.12270126 2.51830747 3.94523098 3.7261549 4.75 7.75 C4.8325 8.8225 4.915 9.895 5 11 C1.87729874 8.48169253 1.05476902 7.2738451 0.25 3.25 C0.1675 2.1775 0.085 1.105 0 0 Z " fill="#1FB6D1" transform="translate(21,51)"/>
<path d="M0 0 C2.24027294 2.88035092 4.16172132 5.84866512 6 9 C5.67 9.66 5.34 10.32 5 11 C0.07692308 6.81538462 0.07692308 6.81538462 -0.3125 2.6875 C-0.209375 1.800625 -0.10625 0.91375 0 0 Z " fill="#19B731" transform="translate(56,19)"/>
<path d="M0 0 C0.556875 0.639375 1.11375 1.27875 1.6875 1.9375 C4.22066561 4.19680987 5.68341424 4.63149047 9 5 C8.67 5.66 8.34 6.32 8 7 C6.35 7 4.7 7 3 7 C2.67 6.01 2.34 5.02 2 4 C1.34 4 0.68 4 0 4 C0 2.68 0 1.36 0 0 Z " fill="#173023" transform="translate(57,40)"/>
<path d="M0 0 C4.42857143 5.14285714 4.42857143 5.14285714 5 9 C3.68 8.67 2.36 8.34 1 8 C0.67 5.36 0.34 2.72 0 0 Z " fill="#143421" transform="translate(52,31)"/>
<path d="M0 0 C0.6875 1.6875 0.6875 1.6875 1 4 C-0.25 6.6875 -0.25 6.6875 -2 9 C-2.99 9.33 -3.98 9.66 -5 10 C-3.66511872 6.40608886 -2.03977277 3.24509304 0 0 Z " fill="#11A6BF" transform="translate(21,25)"/>
<path d="M0 0 C1.4540625 0.0309375 1.4540625 0.0309375 2.9375 0.0625 C2.9375 0.7225 2.9375 1.3825 2.9375 2.0625 C1.98875 2.371875 1.04 2.68125 0.0625 3 C-2.92330408 3.93644742 -2.92330408 3.93644742 -5.0625 5.0625 C-3.9375 0.08035714 -3.9375 0.08035714 0 0 Z " fill="#1E362B" transform="translate(52.0625,14.9375)"/>
</svg>
