<?xml version="1.0" encoding="UTF-8"?>
<svg version="1.1" xmlns="http://www.w3.org/2000/svg" width="32" height="32">
<path d="M0 0 C1.47726563 -0.02900391 1.47726563 -0.02900391 2.984375 -0.05859375 C7.44173413 -0.02847646 10.26149283 0.19069181 14.1484375 2.4765625 C16.89702825 7.15032651 16.72959615 11.29756958 16.625 16.625 C16.64433594 17.60984375 16.66367187 18.5946875 16.68359375 19.609375 C16.65347646 24.06673413 16.43430819 26.88649283 14.1484375 30.7734375 C9.47467349 33.52202825 5.32743042 33.35459615 0 33.25 C-0.98484375 33.26933594 -1.9696875 33.28867187 -2.984375 33.30859375 C-7.44173413 33.27847646 -10.26149283 33.05930819 -14.1484375 30.7734375 C-16.89702825 26.09967349 -16.72959615 21.95243042 -16.625 16.625 C-16.64433594 15.64015625 -16.66367187 14.6553125 -16.68359375 13.640625 C-16.65347646 9.18326587 -16.43430819 6.36350717 -14.1484375 2.4765625 C-9.47467349 -0.27202825 -5.32743042 -0.10459615 0 0 Z " fill="#070103" transform="translate(16,-0.625)"/>
<path d="M0 0 C5.37003895 1.07400779 6.61179823 1.93415787 10 6 C10 6.99 10 7.98 10 9 C7.03 8.505 7.03 8.505 4 8 C4.08701172 8.88751953 4.08701172 8.88751953 4.17578125 9.79296875 C4.42847247 14.21867494 4.43683564 16.35759465 1.875 20.125 C-1 22 -1 22 -4.125 22 C-8.45124283 20.49521989 -8.45124283 20.49521989 -10 18 C-10.42888292 14.64041709 -10.33264845 12.6652969 -8.8125 9.625 C-7 8 -7 8 -4.3125 7.75 C-3.549375 7.8325 -2.78625 7.915 -2 8 C-2 9.32 -2 10.64 -2 12 C-3.32 12 -4.64 12 -6 12 C-5.67 13.65 -5.34 15.3 -5 17 C-3.68 16.67 -2.36 16.34 -1 16 C-0.67 10.72 -0.34 5.44 0 0 Z " fill="#8DE9E9" transform="translate(16,5)"/>
<path d="M0 0 C4 0 4 0 6.75 2.3125 C9 5 9 5 9 8 C6.03 7.505 6.03 7.505 3 7 C3.03480469 7.60328125 3.06960937 8.2065625 3.10546875 8.828125 C3.32770154 15.3892835 3.32770154 15.3892835 1.625 18.5625 C0 20 0 20 -2 20 C-2 19.01 -2 18.02 -2 17 C-1.34 17 -0.68 17 0 17 C0 11.39 0 5.78 0 0 Z " fill="#F4DDE7" transform="translate(17,6)"/>
<path d="M0 0 C2 3 2 3 1.625 5.6875 C1.41875 6.450625 1.2125 7.21375 1 8 C-0.9375 8.5625 -0.9375 8.5625 -3 9 C-4 8 -4 8 -4.0625 5.4375 C-4.041875 4.633125 -4.02125 3.82875 -4 3 C-2.68 3 -1.36 3 0 3 C0 2.01 0 1.02 0 0 Z " fill="#4C0E24" transform="translate(14,14)"/>
<path d="M0 0 C1.2065625 0.0309375 1.2065625 0.0309375 2.4375 0.0625 C2.4375 1.3825 2.4375 2.7025 2.4375 4.0625 C0.1275 4.7225 -2.1825 5.3825 -4.5625 6.0625 C-3.48963568 0.08511307 -3.48963568 0.08511307 0 0 Z " fill="#9DE2E4" transform="translate(11.5625,12.9375)"/>
</svg>
