<?xml version="1.0" encoding="UTF-8"?>
<svg version="1.1" xmlns="http://www.w3.org/2000/svg" width="32" height="32">
<path d="M0 0 C1.14984375 -0.00386719 2.2996875 -0.00773438 3.484375 -0.01171875 C4.68578125 -0.00011719 5.8871875 0.01148437 7.125 0.0234375 C8.32640625 0.01183594 9.5278125 0.00023438 10.765625 -0.01171875 C12.49039062 -0.00591797 12.49039062 -0.00591797 14.25 0 C15.83167969 0.00507568 15.83167969 0.00507568 17.4453125 0.01025391 C20.125 0.3984375 20.125 0.3984375 21.96728516 1.55615234 C23.61461838 4.17757294 23.51354594 6.1910385 23.5234375 9.2734375 C23.52923828 10.99820312 23.52923828 10.99820312 23.53515625 12.7578125 C23.52355469 13.95921875 23.51195312 15.160625 23.5 16.3984375 C23.51160156 17.59984375 23.52320313 18.80125 23.53515625 20.0390625 C23.53128906 21.18890625 23.52742188 22.33875 23.5234375 23.5234375 C23.52005371 24.57789062 23.51666992 25.63234375 23.51318359 26.71875 C23.125 29.3984375 23.125 29.3984375 21.96728516 31.24072266 C19.34586456 32.88805588 17.332399 32.78698344 14.25 32.796875 C13.10015625 32.80074219 11.9503125 32.80460937 10.765625 32.80859375 C9.56421875 32.79699219 8.3628125 32.78539062 7.125 32.7734375 C5.92359375 32.78503906 4.7221875 32.79664063 3.484375 32.80859375 C1.75960938 32.80279297 1.75960938 32.80279297 0 32.796875 C-1.05445313 32.79349121 -2.10890625 32.79010742 -3.1953125 32.78662109 C-5.875 32.3984375 -5.875 32.3984375 -7.71728516 31.24072266 C-9.36461838 28.61930206 -9.26354594 26.6058365 -9.2734375 23.5234375 C-9.27730469 22.37359375 -9.28117188 21.22375 -9.28515625 20.0390625 C-9.27355469 18.83765625 -9.26195312 17.63625 -9.25 16.3984375 C-9.26160156 15.19703125 -9.27320313 13.995625 -9.28515625 12.7578125 C-9.28128906 11.60796875 -9.27742187 10.458125 -9.2734375 9.2734375 C-9.27005371 8.21898437 -9.26666992 7.16453125 -9.26318359 6.078125 C-8.875 3.3984375 -8.875 3.3984375 -7.71728516 1.55615234 C-5.09586456 -0.09118088 -3.082399 0.00989156 0 0 Z " fill="#FF4C0A" transform="translate(8.875,-0.3984375)"/>
<path d="M0 0 C0.98871094 -0.01417969 1.97742188 -0.02835938 2.99609375 -0.04296875 C5.5625 0.1875 5.5625 0.1875 7.5625 2.1875 C8.12559148 8.38150631 8.12559148 8.38150631 6.3671875 10.8984375 C3.9335717 12.6367345 2.333327 12.49025949 -0.625 12.375 C-1.52605469 12.34792969 -2.42710938 12.32085937 -3.35546875 12.29296875 C-4.04253906 12.25816406 -4.72960938 12.22335938 -5.4375 12.1875 C-5.7675 11.1975 -6.0975 10.2075 -6.4375 9.1875 C-7.015 9.538125 -7.5925 9.88875 -8.1875 10.25 C-10.4375 11.1875 -10.4375 11.1875 -14.4375 10.1875 C-14.4375 7.2175 -14.4375 4.2475 -14.4375 1.1875 C-13.138125 1.208125 -11.83875 1.22875 -10.5 1.25 C-9.14584367 1.27149454 -7.78993917 1.25898199 -6.4375 1.1875 C-4.69900372 -0.55099628 -2.3588363 0.01533704 0 0 Z " fill="#FFBDA5" transform="translate(19.4375,15.8125)"/>
<path d="M0 0 C0.66 0.33 1.32 0.66 2 1 C2.804375 0.95875 3.60875 0.9175 4.4375 0.875 C7 1 7 1 8.875 2.1875 C10 4 10 4 9.875 6.5625 C9 9 9 9 6 11 C3.99100513 10.72604615 1.99110401 10.38290462 0 10 C-1.2375 10.020625 -2.475 10.04125 -3.75 10.0625 C-7 10 -7 10 -9 8 C-9.33302312 4.8695827 -9.47671956 2.82101702 -7.875 0.0625 C-5.04436087 -1.54152884 -3.06387128 -0.78226501 0 0 Z " fill="#FFD5C6" transform="translate(17,4)"/>
<path d="M0 0 C1.45792884 -0.05399736 2.91642712 -0.09279177 4.375 -0.125 C5.18710937 -0.14820313 5.99921875 -0.17140625 6.8359375 -0.1953125 C9 0 9 0 11 2 C11.56309148 8.19400631 11.56309148 8.19400631 9.8046875 10.7109375 C7.3710717 12.4492345 5.770827 12.30275949 2.8125 12.1875 C1.91144531 12.16042969 1.01039062 12.13335937 0.08203125 12.10546875 C-0.60503906 12.07066406 -1.29210937 12.03585938 -2 12 C-2.66 10.35 -3.32 8.7 -4 7 C-3.01 7.495 -3.01 7.495 -2 8 C-0.29636178 8.22622081 1.41328701 8.40888473 3.125 8.5625 C4.03507812 8.64628906 4.94515625 8.73007812 5.8828125 8.81640625 C6.93082031 8.90728516 6.93082031 8.90728516 8 9 C8 6.69 8 4.38 8 2 C5.36 2 2.72 2 0 2 C0 1.34 0 0.68 0 0 Z " fill="#FFCDBB" transform="translate(16,16)"/>
<path d="M0 0 C1.23556641 0.01740234 1.23556641 0.01740234 2.49609375 0.03515625 C3.32238281 0.04417969 4.14867187 0.05320312 5 0.0625 C5.63808594 0.07410156 6.27617187 0.08570312 6.93359375 0.09765625 C6.93359375 2.40765625 6.93359375 4.71765625 6.93359375 7.09765625 C3.63359375 7.09765625 0.33359375 7.09765625 -3.06640625 7.09765625 C-3.10894981 5.09810879 -3.10721408 3.09723989 -3.06640625 1.09765625 C-2.06640625 0.09765625 -2.06640625 0.09765625 0 0 Z " fill="#FF4F0F" transform="translate(17.06640625,17.90234375)"/>
<path d="M0 0 C0 0.66 0 1.32 0 2 C-1.98 2.99 -1.98 2.99 -4 4 C-4 5.32 -4 6.64 -4 8 C-2.35 8.33 -0.7 8.66 1 9 C1 9.66 1 10.32 1 11 C-1.875 11.125 -1.875 11.125 -5 11 C-7 9 -7 9 -7.3125 6.0625 C-7 3 -7 3 -5.75 1.125 C-4 0 -4 0 0 0 Z " fill="#FFE9E1" transform="translate(15,3)"/>
<path d="M0 0 C2.475 0.495 2.475 0.495 5 1 C4.01 1.33 3.02 1.66 2 2 C2 3.65 2 5.3 2 7 C3.32 7.33 4.64 7.66 6 8 C5.34 8.66 4.68 9.32 4 10 C2.68 9.67 1.36 9.34 0 9 C0 6.03 0 3.06 0 0 Z " fill="#FFDED2" transform="translate(5,17)"/>
<path d="M0 0 C1.67542976 0.28604898 3.34385343 0.61781233 5 1 C5 2.65 5 4.3 5 6 C3.35 6 1.7 6 0 6 C-0.38218767 4.34385343 -0.71395102 2.67542976 -1 1 C-0.67 0.67 -0.34 0.34 0 0 Z " fill="#FF5111" transform="translate(11,6)"/>
<path d="M0 0 C0.66 0.66 1.32 1.32 2 2 C1.625 4.125 1.625 4.125 1 6 C0.34 5.01 -0.32 4.02 -1 3 C-3.86724686 3.57344937 -4.8614515 3.8614515 -7 6 C-7 4.35 -7 2.7 -7 1 C-4.48718205 -0.25640898 -2.78302919 -0.20872719 0 0 Z " fill="#FFF3EE" transform="translate(24,5)"/>
<path d="M0 0 C1.47906892 -0.02689216 2.95827483 -0.04634621 4.4375 -0.0625 C5.26121094 -0.07410156 6.08492187 -0.08570313 6.93359375 -0.09765625 C9 0 9 0 10 1 C10.04092937 3.33297433 10.04241723 5.66705225 10 8 C9.67 8 9.34 8 9 8 C8.67 6.35 8.34 4.7 8 3 C5.36 2.67 2.72 2.34 0 2 C0 1.34 0 0.68 0 0 Z " fill="#FFF1EC" transform="translate(16,16)"/>
<path d="M0 0 C1.98 0.495 1.98 0.495 4 1 C4 2.32 4 3.64 4 5 C2.35 5 0.7 5 -1 5 C-0.67 3.35 -0.34 1.7 0 0 Z " fill="#FF6228" transform="translate(20,7)"/>
<path d="M0 0 C0 0.66 0 1.32 0 2 C-1.41623216 2.05447047 -2.83308191 2.09300508 -4.25 2.125 C-5.03890625 2.14820313 -5.8278125 2.17140625 -6.640625 2.1953125 C-9.20731941 1.9828378 -10.7916067 1.28654105 -13 0 C-8.37078475 -1.0161692 -4.65537393 -0.83796731 0 0 Z " fill="#FF7D4D" transform="translate(24,14)"/>
</svg>
